<svg width="136" height="86" viewBox="0 0 136 86" fill="none" xmlns="http://www.w3.org/2000/svg">
<g clip-path="url(#clip0_172_322)">
<path d="M41.9457 22.5469C41.9457 19.0199 41.9368 15.6444 41.948 12.269C41.9614 8.5926 41.9256 4.91841 42.053 1.242C42.0888 0.223126 42.4933 0.000178253 43.4119 0.0135551C46.1296 0.0536858 48.8495 0.0670627 51.565 0.000178254C52.611 -0.024346 52.8993 0.339059 52.8948 1.34678C52.8613 8.10657 52.8881 14.8664 52.8769 21.6261C52.8769 22.3307 52.8434 22.9571 53.7575 23.1355C54.2492 23.2336 54.2805 23.6951 54.2805 24.1232C54.2805 25.9067 54.2604 27.6881 54.2984 29.4717C54.314 30.2409 53.9095 30.4125 53.2658 30.446C51.1091 30.553 48.9546 30.6934 46.8627 31.2999C42.9783 32.428 40.2114 35.1301 37.5339 37.9415C36.7919 38.7196 36.1884 39.6247 35.4599 40.4184C34.7961 41.143 35.1246 41.3816 35.8778 41.5666C36.7383 41.7784 37.6345 41.8854 38.4055 42.4963C37.4177 42.396 36.4298 42.3001 35.4442 42.1931C34.7044 42.1128 33.9669 42.0237 33.2271 41.9278C30.8044 41.6134 29.0589 42.6724 28.0934 44.7904C27.4408 46.2262 26.5893 46.6476 25.0315 46.6387C17.4773 46.6008 9.92311 46.7078 2.36892 46.7591C1.8303 46.7635 1.28049 46.8081 0.471436 46.5094C2.96566 46.2441 5.1604 46.0233 7.3529 45.7736C9.16322 45.5685 10.9691 45.3456 12.7481 44.8975C13.6689 44.6656 13.9036 44.1885 13.8544 43.3056C13.736 41.1943 13.727 39.0785 13.6153 36.9672C13.5728 36.1802 13.7248 35.7388 14.621 35.8725C15.3653 35.984 15.4569 35.5515 15.4502 34.9339C15.4256 32.2608 15.4636 29.5854 15.4256 26.9122C15.4144 26.094 15.6692 25.8109 16.5118 25.8265C19.1535 25.8733 21.7997 25.8666 24.4415 25.822C25.2304 25.8086 25.4651 26.0628 25.4561 26.8387C25.4248 29.9577 25.4494 33.079 25.4606 36.198C25.4606 36.6506 25.2818 37.2191 26.0931 37.2035C26.9156 37.1879 26.6876 36.5971 26.6854 36.1624C26.6831 34.974 26.6876 33.7835 26.6049 32.6019C26.5446 31.748 26.9267 31.4827 27.7 31.4738C28.8533 31.4604 30.0065 31.3534 31.1598 31.3779C32.0694 31.398 32.4136 31.0881 32.3801 30.1517C32.3018 27.8531 32.3264 25.55 32.2706 23.2492C32.2527 22.5246 32.4114 22.1612 33.2428 22.1746C35.737 22.2125 38.2312 22.1969 40.7254 22.1746C41.1568 22.1701 41.5032 22.3373 41.9413 22.5514L41.9457 22.5469Z" fill="#002F4B"/>
<path d="M39.2304 69.3324C39.217 68.9155 39.6483 69.134 39.7087 68.7037C26.462 68.231 13.231 67.7606 0 67.288C0 67.2255 0 67.1631 0.00223497 67.0985H29.5932C27.5102 61.828 27.9304 56.4036 27.9729 51.0172C27.9729 50.8411 27.9617 50.6404 28.2254 50.5067C28.5003 51.2647 28.0622 52.0673 28.4042 53.0884C28.6277 52.2278 28.7908 51.637 28.9361 51.044C29.1283 50.248 29.4055 49.49 30.3687 49.4343C31.37 49.3763 31.636 50.1611 31.8863 50.9303C33.0127 54.3927 33.8888 57.9241 34.7783 61.449C35.0264 62.4366 35.3281 62.7577 36.4277 62.4388C38.8348 61.7432 41.3089 62.2159 43.7562 62.314C44.9832 62.363 46.2079 62.479 47.4282 62.6083C48.3669 62.7086 48.7268 62.5303 48.5591 61.4222C48.0674 58.1739 48.0496 54.9121 48.8206 51.6861C49.1335 50.3774 49.5269 49.0999 50.3583 48.0141C51.0869 47.0643 52.0144 46.9417 52.9933 47.615C53.7867 48.1613 54.4527 49.2871 54.6561 50.5513C53.8873 50.1388 53.152 49.9872 52.3921 50.3506C51.545 50.7564 50.955 51.4274 50.5483 52.2278C48.501 56.2431 48.2999 60.3721 50.1594 64.4699C51.3998 67.2033 53.6794 67.2612 55.3534 64.762C56.1245 63.6093 56.5223 62.3029 56.909 60.6374C57.3157 62.1825 58.3058 62.0063 59.249 61.9573C60.4737 61.8926 61.7007 61.8168 62.9255 61.7945C63.4462 61.7856 63.8508 61.6184 64.2419 61.2974C64.9616 60.7088 65.7259 60.1759 66.4344 59.574C69.1968 57.2286 72.4263 56.5062 75.9822 56.5686C82.1239 56.6779 88.27 56.5909 94.4117 56.7024C96.6444 56.7425 98.8772 56.8161 101.108 56.7715C102.601 56.7425 103.787 57.2196 104.782 58.2965C105.54 59.1147 106.329 59.9017 107.104 60.7021C107.493 61.1034 107.719 61.0276 107.819 60.4747C108.02 59.3755 108.177 58.2764 107.949 57.1305C107.801 57.8439 107.654 58.5573 107.504 59.2685C107.459 59.4781 107.491 59.7479 107.229 59.8281C106.896 59.9329 106.778 59.6364 106.639 59.4335C105.98 58.4815 105.354 57.5005 105.2 56.3278C105.131 55.8017 104.932 55.6389 104.42 55.6635C104.094 55.6813 103.544 55.8686 103.517 55.3313C103.492 54.8252 103.685 54.2121 104.219 54.0292C105.354 53.6369 106.568 53.6926 107.754 53.6235C108.146 53.6012 108.155 53.9824 108.17 54.2856C108.193 54.7271 108.146 55.1886 108.257 55.6099C109.39 59.924 108.414 63.6762 105.305 66.8777C105.258 66.9268 105.247 67.0093 105.157 67.2255C113.983 67.4864 122.751 67.7472 131.637 68.0081C131.356 68.4807 131.036 68.3626 130.777 68.3648C124.26 68.4049 117.745 68.3849 111.228 68.4874C103.3 68.6123 95.3705 68.6769 87.4409 68.7081C83.0134 68.726 78.5837 68.7929 74.1584 68.9155C66.9373 69.1139 59.7139 69.0381 52.4927 69.1184C48.4362 69.163 44.3797 69.2521 40.3233 69.319C39.959 69.3257 39.5947 69.319 39.2304 69.319V69.3324ZM95.109 66.7752C94.8364 66.3605 94.4855 65.9703 94.2955 65.5111C93.92 64.6014 93.2764 64.4253 92.3556 64.4454C89.535 64.5033 86.7123 64.4654 83.8917 64.4654C82.8145 64.4654 81.7372 64.4342 80.6622 64.4699C79.5671 64.5056 79.5403 65.578 79.4196 66.1888C79.2832 66.8844 80.1437 66.5233 80.5281 66.5389C83.3822 66.6526 86.2384 66.7239 89.0947 66.7707C91.0771 66.8042 93.0618 66.7774 95.109 66.7774V66.7752ZM43.3159 67.1185C43.3159 67.1029 43.3159 67.0873 43.3159 67.0717C45.4369 67.0717 47.5579 67.0762 49.6789 67.065C49.9135 67.065 50.2465 67.1698 50.3315 66.8153C50.4521 66.307 48.9279 64.626 48.3669 64.6104C45.3564 64.5212 42.3459 64.4654 39.3399 64.3161C38.1822 64.2581 37.2055 64.2559 37.0491 65.7251C37.0334 65.8633 36.944 66.0082 36.8546 66.1219C36.0634 67.1208 36.7116 67.1364 37.5117 67.1274C39.4472 67.1074 41.3827 67.1208 43.3181 67.1208L43.3159 67.1185ZM67.9028 66.8777C67.9028 66.8242 67.9028 66.7707 67.9028 66.7172C68.7185 66.7172 69.5365 66.7195 70.3523 66.7172C71.3923 66.7142 71.7253 66.2542 71.3513 65.3372C71.253 65.0964 71.1323 64.8601 71.0742 64.6104C70.8999 63.8434 70.4909 63.5536 69.6572 63.587C67.9877 63.6517 66.3092 63.6561 64.642 63.5491C63.4284 63.4711 62.5679 63.6829 62.255 65.0139C62.1589 65.4263 61.8527 65.8076 61.5823 66.1554C61.104 66.7752 61.3789 66.8867 61.9958 66.8844C63.9648 66.8733 65.9315 66.88 67.9005 66.88L67.9028 66.8777ZM28.8467 56.6221C28.469 59.0367 28.6433 61.42 29.211 63.7743C29.3541 64.3696 29.4368 65.2525 30.1341 65.277C30.9297 65.306 31.0303 64.3629 31.1756 63.7654C31.9444 60.6241 31.9936 57.4582 31.3365 54.2856C31.2314 53.7773 31.1018 53.2735 30.8224 52.8231C30.4648 52.2434 30.0245 52.2211 29.7273 52.7986C29.2624 53.6993 28.887 54.6513 28.9719 55.8931C29.4122 55.4048 29.1663 54.7873 29.6357 54.5175C30.0782 54.6 29.8212 55.2577 30.286 55.2978C30.6883 55.0972 30.3397 54.5554 30.7263 54.3525C31.6583 55.581 31.741 57.3868 30.9141 58.6175C30.7688 58.8338 30.5051 59.0723 30.7733 59.2886C31.8013 60.118 31.437 61.1391 31.2404 62.1512C31.0392 63.1813 31.0504 63.1768 30.1385 63.1055C30.0693 63.101 29.9843 63.237 29.915 63.315C29.6915 63.5759 29.4993 63.4599 29.43 63.2169C29.0926 62.0398 28.7774 60.8515 28.9987 59.6074C29.0523 59.2975 29.5954 59.0946 29.3205 58.7446C28.802 58.0847 28.9898 57.3311 28.8512 56.6177L28.8467 56.6221Z" fill="#002F4B"/>
<path d="M89.0009 36.4588C89.0009 35.3685 89.0031 34.3474 89.0009 33.3263C89.0009 32.8849 89.0411 32.4658 89.6289 32.5014C90.1005 32.5304 90.7934 32.2406 90.847 33.0566C90.8939 33.7589 91.3253 33.663 91.7767 33.6652C92.3802 33.6675 92.3891 33.2684 92.3936 32.8336C92.3981 32.3877 92.4897 31.9396 92.4495 31.5004C92.3735 30.6733 92.5836 30.2274 93.5379 30.3388C94.3492 30.4325 94.2754 29.7904 94.271 29.2754C94.2531 26.6758 94.2687 24.074 94.1771 21.4767C94.1413 20.4712 94.4766 20.2348 95.4443 20.2326C99.389 20.2259 103.334 20.1523 107.276 20.052C108.157 20.0297 108.447 20.3062 108.436 21.1868C108.396 24.2702 108.436 27.3536 108.414 30.4392C108.409 31.1035 108.526 31.5361 109.323 31.438C110.05 31.3488 110.191 31.7902 110.182 32.4011C110.162 33.7388 110.209 35.0765 110.164 36.4142C110.139 37.141 110.387 37.3929 111.118 37.3951C111.858 37.3951 112.077 37.1231 112.075 36.4075C112.055 31.4291 112.066 26.4506 112.07 21.47C112.07 20.159 112.077 20.159 113.277 20.5447C114.694 20.9995 116.102 21.4767 117.528 21.9003C118.156 22.0875 118.46 22.393 118.415 23.0819C118.362 23.8956 118.435 24.7183 118.391 25.5321C118.355 26.1809 118.621 26.3815 119.238 26.357C120.13 26.3213 121.028 26.3993 121.918 26.3391C122.724 26.2856 122.948 26.6111 122.937 27.3692C122.905 29.7458 122.959 32.1247 122.91 34.5035C122.892 35.3552 123.109 35.7119 124.025 35.674C125.826 35.5982 125.746 35.509 125.744 37.442C125.742 39.1141 125.782 40.7884 125.726 42.4583C125.699 43.2119 125.943 43.4883 126.689 43.582C129.644 43.9565 132.589 44.389 135.537 44.8037C135.667 44.8215 135.792 44.8684 135.998 44.9196C135.575 45.2719 135.153 45.1961 134.769 45.185C129.331 45.0289 123.895 45.2139 118.462 45.3098C114.96 45.37 111.471 45.2006 107.974 45.1872C107.198 45.1849 106.572 44.9687 105.96 44.4381C103.948 42.6924 101.483 41.9098 98.8035 41.1451C99.1342 42.3468 99.76 43.2631 99.7355 44.3868C99.2482 44.2508 99.2058 43.8317 99.0493 43.5262C97.8447 41.1474 95.9919 39.7807 93.2473 40.0505C91.7387 40.1976 90.7397 39.6692 89.8658 38.4764C88.9003 37.1588 87.6465 36.0798 86.4642 34.9472C84.1398 32.7199 81.3193 31.5717 78.168 31.2239C77.2696 31.1236 77.0729 30.7535 77.0885 29.9465C77.1198 28.4616 77.093 26.9746 77.0304 25.4897C76.9991 24.7317 77.2204 24.4396 78.0317 24.453C80.7874 24.4954 83.5454 24.4998 86.2988 24.4463C87.1727 24.4285 87.3537 24.7183 87.3023 25.5388C87.128 28.2431 87.1056 30.9519 87.3716 33.6563C87.5214 35.1813 87.8097 35.7409 88.9964 36.461L89.0009 36.4588Z" fill="#002F4B"/>
<path d="M66.1483 40.1373C67.972 41.1161 69.6348 42.2999 71.168 43.6978C70.7948 43.9943 70.5914 43.7424 70.3791 43.6376C67.7351 42.3378 64.9682 41.3635 62.1745 40.4427C60.3262 39.8341 58.4846 40.4026 56.6452 40.4517C54.7164 40.5052 52.7899 40.7571 50.8678 40.9667C50.0386 41.0559 49.6721 40.8485 49.6184 39.93C49.5268 38.3404 49.3011 36.7552 49.0843 35.1745C48.9033 33.8524 48.6619 32.5348 47.2717 31.7678C47.9601 31.4847 48.463 31.7233 48.7826 32.1201C49.4151 32.9093 50.1839 32.8001 51.0064 32.6463C55.4964 31.8102 60.0401 31.7478 64.5726 31.8882C69.9991 32.0554 75.41 32.5415 80.7895 33.3173C80.9303 33.3374 81.0756 33.3196 81.2477 33.2237C80.1615 32.5459 78.968 32.1714 77.4214 31.9573C78.5501 31.6006 79.3368 31.993 80.1056 32.1959C83.6257 33.1301 86.2674 35.3907 88.679 37.9769C89.1595 38.492 89.6132 39.0359 90.0646 39.5777C90.2434 39.794 90.6301 39.9612 90.4848 40.2911C90.3239 40.6612 89.9596 40.416 89.6869 40.3937C83.8269 39.8854 77.9578 39.6446 72.0754 39.7026C70.131 39.7226 68.1843 39.7048 66.2377 39.7048C66.2064 39.8475 66.1751 39.9924 66.1438 40.1351L66.1483 40.1373Z" fill="#002F4B"/>
<path d="M58.3104 21.102C58.3104 18.3932 58.3327 15.6844 58.297 12.9756C58.2858 12.1707 58.4534 12.0124 59.2401 12.3357C63.3972 14.0502 67.5698 15.7268 71.7492 17.381C72.422 17.6463 72.7416 17.9652 72.7326 18.7455C72.6924 22.3082 72.7036 25.8709 72.7326 29.4336C72.7393 30.2072 72.6075 30.5729 71.6889 30.4993C67.5743 30.1738 63.4486 30.069 59.3228 30.2251C58.4668 30.2585 58.2679 29.9286 58.2836 29.117C58.335 26.4461 58.3037 23.773 58.3037 21.102H58.3104Z" fill="#002F4B"/>
<path d="M80.8432 53.6324C78.0137 53.6324 75.1843 53.6146 72.357 53.6414C71.2083 53.6525 70.5936 52.9926 70.1243 52.0896C69.8516 51.5657 69.9321 51.1087 70.3858 50.6918C72.3168 48.9126 74.2635 47.3743 77.1443 47.2271C82.2825 46.9618 87.4095 46.9752 92.5433 47.129C94.8497 47.1982 97.1741 47.1781 99.4359 47.6284C101.497 48.0387 102.648 49.6974 103.553 51.4052C104.049 52.3438 102.992 53.6793 101.836 53.735C99.979 53.8219 98.1173 53.8598 96.2555 53.8665C91.1173 53.8821 85.9814 53.8732 80.8432 53.8732C80.8432 53.7952 80.8432 53.7172 80.8432 53.6391V53.6324Z" fill="#002F4B"/>
<path d="M49.7661 59.7035C49.6387 59.1662 50.146 59.0413 50.5372 58.8719C51.1205 58.6199 51.2948 58.3435 50.6132 58.0358C49.8354 57.6836 49.8086 57.1284 49.9538 56.3905C50.1706 55.2869 50.5103 54.2435 51.0512 53.258C51.3842 52.6516 51.6703 52.4978 52.1575 53.1644C53.2281 54.6247 53.2839 54.6225 54.0729 53.0239C54.4998 52.1589 54.7993 52.3952 55.1859 53.0128C55.8743 54.1142 56.0687 55.356 56.2408 56.609C56.2944 57.0103 56.0955 57.2332 55.7871 57.416C55.3714 57.6613 54.9691 57.9355 54.5378 58.1473C53.912 58.455 53.8181 58.6712 54.5042 59.0725C56.3548 60.1561 56.3995 60.3433 55.5636 62.3432C55.2932 62.992 54.9758 63.6184 54.502 64.158C54.0125 64.7153 53.6617 64.7153 53.418 63.9729C53.1051 63.0142 52.7297 62.8292 52.162 63.8235C51.6926 64.6462 51.2926 64.3564 50.8858 63.7143C50.1259 62.5104 49.9337 61.1616 49.7683 59.7035H49.7661Z" fill="#002F4B"/>
<path d="M42.6499 41.8719C41.2463 41.7872 39.8383 41.7537 38.4437 41.6021C37.3731 41.4862 37.0803 40.7884 37.657 39.716C38.437 38.2601 39.5656 37.0696 40.8239 36.015C42.1358 34.9137 43.5908 34.0085 45.1106 33.2215C46.5991 32.4501 47.4037 32.8269 47.6897 34.4767C48.025 36.4119 48.2775 38.3604 48.5636 40.3046C48.5792 40.4138 48.6441 40.552 48.6016 40.6301C48.0205 41.6868 47.0192 41.0202 46.2191 41.1696C45.7855 41.2499 45.2804 41.3078 45.2268 40.5141C45.0905 38.5433 44.6368 38.2178 42.7102 38.4206C42.0464 38.4898 41.3737 38.4942 40.7099 38.5722C39.7601 38.6859 39.4069 39.4105 39.3153 40.2087C39.2416 40.8419 39.6707 41.1963 40.3389 41.2744C41.1078 41.3658 41.8699 41.5285 42.6342 41.6601C42.6387 41.7292 42.6454 41.8005 42.6499 41.8696V41.8719Z" fill="#002F4B"/>
<path d="M56.3749 42.0078C58.6635 42.6566 60.6437 43.4815 61.7433 45.595C62.0204 46.1279 62.3445 46.2996 62.9211 46.3999C66.1819 46.9595 69.5254 46.8034 72.7952 47.635C70.7815 47.042 69.4897 48.3908 68.0459 49.3116C67.6503 49.5635 67.2726 49.6438 66.7988 49.646C65.1114 49.6527 63.4553 49.3696 61.7254 49.8801C60.2615 50.3104 58.6344 49.733 57.0856 49.5546C56.5425 49.4922 56.3704 48.9482 56.205 48.4934C56.0262 47.9984 56.4553 47.8379 56.7526 47.6573C57.7516 47.0531 58.545 46.0722 59.8726 46.0543C60.3978 46.0476 60.1453 45.6508 60.0223 45.4033C59.4569 44.264 58.5406 43.4704 57.4566 42.8416C57.1169 42.6432 56.6721 42.5852 56.3749 42.0078ZM60.8135 47.0041C58.992 46.197 58.1047 47.4477 57.0811 48.1835C56.5693 48.5513 56.9761 48.9303 57.4231 49.0017C58.2433 49.1355 59.0792 49.1778 60.0156 49.2692C59.5955 48.6539 58.4445 48.8724 58.7484 47.8624C59.0144 46.9773 59.7474 46.877 60.8135 47.0041Z" fill="#002F4B"/>
<path d="M56.9515 80.8522C56.9515 82.3103 56.9404 83.6413 56.956 84.9723C56.9627 85.5475 56.804 85.873 56.1402 85.873C55.472 85.873 55.3312 85.5408 55.3356 84.97C55.3491 82.8921 55.3334 80.8143 55.3424 78.7364C55.3424 78.3507 55.2172 77.8714 55.7826 77.7331C56.2565 77.6172 56.6543 77.751 56.9694 78.1434C58.0422 79.4721 59.1239 80.7942 60.2056 82.1163C60.3666 82.3147 60.5409 82.502 60.9879 82.6714C60.9879 81.3404 61.0058 80.0094 60.9812 78.6784C60.97 78.0542 61.1242 77.6908 61.8461 77.7131C62.5345 77.7354 62.6082 78.1389 62.606 78.6762C62.5971 80.7162 62.6082 82.7562 62.5948 84.7984C62.5926 85.1774 62.7557 85.6835 62.1992 85.8261C61.7075 85.951 61.2628 85.8484 60.9119 85.4025C59.9687 84.2075 59.0055 83.0304 58.0333 81.8577C57.7584 81.5277 57.5773 81.093 56.9515 80.8522Z" fill="#002F4B"/>
<path d="M41.72 77.7486C42.4241 77.6951 43.2823 77.7152 44.1115 77.9627C45.1552 78.2748 45.8346 78.9637 46.0939 80.0316C46.3442 81.0683 46.0782 82.0158 45.2446 82.6312C44.5719 83.1284 44.6032 83.4985 45.0725 84.0424C45.2647 84.2654 45.4413 84.5151 45.5709 84.7804C45.7318 85.1037 46.3464 85.4381 45.9106 85.7614C45.5441 86.0334 44.8736 86.0445 44.4802 85.5852C44.069 85.1081 43.7159 84.5798 43.3762 84.0469C43.0834 83.5876 42.7034 83.465 42.167 83.4293C41.1568 83.3625 40.7277 83.6969 40.864 84.7447C40.9333 85.2843 40.987 85.8818 40.0818 85.8684C39.2057 85.855 39.2839 85.3177 39.2862 84.7403C39.2973 82.8452 39.3599 80.9479 39.2705 79.0573C39.2169 77.9337 39.6236 77.5792 40.6741 77.7442C40.9646 77.7888 41.2686 77.7509 41.7223 77.7509L41.72 77.7486ZM42.652 79.1175C41.4675 79.1027 40.876 79.5753 40.8775 80.5355C40.8775 80.8699 40.8775 81.2021 40.8819 81.5365C40.8819 81.8107 40.9244 82.1006 41.2462 82.1385C42.1693 82.2433 43.1124 82.3525 43.955 81.8219C44.4802 81.4919 44.6568 80.9568 44.5428 80.366C44.4311 79.7752 44.0645 79.3539 43.47 79.2112C43.1124 79.1242 42.7347 79.1264 42.652 79.1198V79.1175Z" fill="#002F4B"/>
<path d="M34.6219 85.7057C33.5112 86.0647 32.8161 85.7971 32.3669 84.8808C32.2216 84.5843 31.978 84.3368 31.8081 84.0537C31.2851 83.1864 30.4224 83.3804 29.7028 83.5097C28.9943 83.6345 29.3452 84.3658 29.2938 84.8318C29.2379 85.3445 29.3787 85.8796 28.5406 85.8707C27.7338 85.8618 27.6645 85.4449 27.6779 84.7983C27.7137 82.7985 27.736 80.7964 27.698 78.7966C27.6824 77.9583 27.9908 77.6684 28.8088 77.7353C30.0626 77.8379 31.3388 77.6038 32.5747 77.9806C33.6229 78.2994 34.2822 78.9883 34.5124 80.0651C34.7315 81.0952 34.5035 82.0494 33.6542 82.6536C32.9569 83.1485 33.0508 83.5008 33.4978 84.0537C33.8889 84.5375 34.204 85.0792 34.6287 85.7102L34.6219 85.7057ZM29.2826 80.6515C29.2826 81.6904 29.7289 82.2106 30.6214 82.2121C32.2126 82.2144 32.9569 81.7194 32.9815 80.6448C33.0038 79.6304 32.2529 79.1154 30.7443 79.1109C29.7713 79.1079 29.2841 79.6215 29.2826 80.6515Z" fill="#002F4B"/>
<path d="M47.7098 81.7238C47.7098 80.6849 47.7299 79.6459 47.7031 78.607C47.6874 78.0206 47.8439 77.7063 48.5099 77.7196C49.9604 77.7486 51.4109 77.7308 52.8614 77.7196C53.3441 77.7152 53.6436 77.869 53.6503 78.4086C53.657 78.9526 53.3598 79.1131 52.8748 79.1086C51.983 79.1042 51.0868 79.151 50.1973 79.1019C49.3927 79.0573 49.3011 79.4899 49.2877 80.1342C49.2742 80.7673 49.4218 81.1241 50.1414 81.0929C50.9214 81.0594 51.7037 81.0951 52.4837 81.0839C52.9172 81.0772 53.2056 81.1865 53.2011 81.6948C53.1966 82.1608 52.9619 82.377 52.5172 82.3815C51.6992 82.3904 50.879 82.4149 50.0632 82.3815C49.3636 82.3525 49.2631 82.7449 49.2966 83.2956C49.3279 83.8307 49.1536 84.4794 50.0475 84.4727C51.0153 84.4661 51.9808 84.475 52.9485 84.4772C53.4291 84.4772 53.8425 84.5285 53.8448 85.175C53.8448 85.8394 53.4089 85.8461 52.9396 85.8483C51.4891 85.8483 50.0386 85.8327 48.5881 85.8639C47.9109 85.8795 47.6651 85.6142 47.6874 84.9454C47.7254 83.8708 47.6986 82.7939 47.6986 81.7171C47.7031 81.7171 47.7075 81.7171 47.712 81.7171L47.7098 81.7238Z" fill="#002F4B"/>
<path d="M70.9804 85.8617C70.2809 85.9286 70.1177 85.699 70.4239 85.0368C71.4364 82.8497 72.4153 80.647 73.3853 78.442C73.6065 77.9381 73.915 77.7152 74.4804 77.6929C75.1285 77.6684 75.4101 78.0073 75.6381 78.5245C76.5679 80.6269 77.5177 82.7226 78.4408 84.8272C78.5726 85.1282 79.0196 85.5563 78.5592 85.7837C78.1413 85.991 77.3233 86.1003 77.1802 85.5384C76.702 83.6679 75.285 84.0804 73.9954 84.0068C73.0076 83.951 72.2454 84.067 71.9906 85.2018C71.8811 85.69 71.5057 85.9331 70.9804 85.8595V85.8617ZM74.4826 79.4051C74.0021 80.5333 73.6423 81.376 73.2825 82.2232C73.1774 82.4684 73.1998 82.6758 73.5194 82.6869C74.1496 82.707 74.7821 82.7248 75.4124 82.7048C75.8169 82.6936 75.7633 82.4283 75.6471 82.1563C75.3006 81.3448 74.9587 80.5333 74.4826 79.4074V79.4051Z" fill="#002F4B"/>
<path d="M25.8408 85.8462C25.2329 85.9554 24.9401 85.563 24.8127 85.0726C24.5646 84.1228 23.9321 83.911 23.056 83.9979C22.5777 84.0448 22.086 84.047 21.61 83.9979C20.716 83.9065 20.1081 84.1696 19.8734 85.1082C19.7728 85.5073 19.5672 85.8551 19.042 85.8573C18.3983 85.8573 17.9089 85.8841 18.3469 84.9678C19.3683 82.8275 20.3182 80.656 21.2747 78.4867C21.4938 77.9873 21.7843 77.7286 22.3587 77.7242C22.9286 77.7197 23.2326 77.956 23.4561 78.4621C24.426 80.6649 25.4139 82.8609 26.4219 85.0458C26.7281 85.7102 26.5493 85.9376 25.843 85.8484L25.8408 85.8462ZM22.4146 79.5434C21.7262 80.462 21.572 81.4385 21.1093 82.2656C21.0088 82.4462 21.0356 82.6937 21.2524 82.7026C21.9519 82.7316 22.6582 82.7249 23.3577 82.6781C23.655 82.658 23.6393 82.3816 23.5477 82.1631C23.1946 81.3293 22.8303 80.5021 22.4146 79.5434Z" fill="#002F4B"/>
<path d="M119.986 80.1968C119.224 81.5011 118.491 82.7652 117.749 84.0248C117.117 85.0994 116.92 85.095 116.301 84.0204C115.55 82.7228 114.795 81.4253 113.811 80.1901C113.811 80.616 113.811 81.0396 113.811 81.4654C113.816 82.7273 113.825 83.9892 113.82 85.251C113.82 85.5721 113.717 85.853 113.328 85.8619C112.957 85.8708 112.79 85.6367 112.79 85.2979C112.783 82.9591 112.781 80.6226 112.783 78.2839C112.783 78.0142 112.843 77.7466 113.185 77.7176C113.588 77.6842 113.775 77.974 113.945 78.2683C114.745 79.6484 115.545 81.0306 116.348 82.4107C117.018 83.5656 117.03 83.57 117.727 82.3906C118.54 81.0173 119.338 79.635 120.138 78.2549C120.31 77.9606 120.471 77.6374 120.887 77.7199C121.341 77.809 121.285 78.197 121.285 78.5225C121.289 80.7118 121.287 82.9012 121.285 85.0905C121.285 85.4718 121.292 85.8909 120.742 85.8575C120.208 85.8263 120.246 85.3915 120.243 85.0259C120.234 83.764 120.246 82.5021 120.228 81.2402C120.223 80.9281 120.357 80.5803 119.984 80.199L119.986 80.1968Z" fill="#002F4B"/>
<path d="M61.0549 60.5951C59.743 58.5551 59.1038 56.2855 58.5741 53.9824C58.4377 53.3916 58.8982 53.1753 59.3943 53.211C62.3199 53.4117 65.2455 53.6212 68.1666 53.8687C68.7767 53.92 69.246 54.357 69.2081 54.9835C69.1589 55.7928 68.4392 55.5163 67.9811 55.5096C66.0523 55.4762 64.1213 55.4316 62.197 55.3134C61.1689 55.251 60.9186 55.7192 60.9342 56.6244C60.9588 57.9442 61.3521 59.2462 61.0549 60.5973V60.5951Z" fill="#002F4B"/>
<path d="M91.0124 80.2034C91.0124 81.5611 91.0124 82.9211 91.0124 84.2789C91.0124 84.6133 91.0191 84.9477 91.0102 85.2799C90.999 85.6121 90.8761 85.8685 90.485 85.844C90.1654 85.8239 90.0223 85.6032 90.0223 85.3178C90.0134 82.9791 90.0156 80.6404 90.0179 78.3016C90.0179 78.023 90.1162 77.7844 90.4313 77.7264C90.8068 77.6573 90.9677 77.9472 91.1152 78.1924C91.9712 79.626 92.816 81.0684 93.6609 82.5087C94.2889 83.5811 94.2956 83.5877 94.9348 82.502C95.7439 81.1242 96.5306 79.7352 97.3352 78.3574C97.5184 78.0408 97.6905 77.6417 98.1621 77.7643C98.6538 77.8914 98.5487 78.3395 98.551 78.694C98.5644 80.7362 98.5733 82.7784 98.5644 84.8206C98.5644 85.2309 98.7119 85.8484 98.0213 85.8128C97.3329 85.7771 97.5743 85.1528 97.5676 84.7604C97.543 83.211 97.5564 81.6615 97.3329 80.0228C96.6758 81.1442 96.0165 82.2657 95.3617 83.3871C95.1941 83.6747 95.0331 83.969 94.8655 84.2588C94.461 84.9589 94.1012 84.9767 93.6899 84.2365C92.9189 82.8498 92.1098 81.4876 91.3164 80.1142C91.2158 80.1432 91.1152 80.1722 91.0147 80.2034H91.0124Z" fill="#002F4B"/>
<path d="M11.9436 81.6234C11.9258 82.8987 12.3325 83.7682 13.3204 84.2899C14.3172 84.816 15.3609 84.845 16.2773 84.1806C16.8226 83.786 17.1668 83.7436 17.5534 84.2854C18.025 84.9453 17.4216 85.1281 17.0416 85.3578C15.0748 86.555 12.3683 86.0222 11.0541 84.194C9.84054 82.5063 10.1892 79.9535 11.8252 78.5623C13.2489 77.3495 15.723 77.2492 17.2495 78.3461C17.5825 78.5869 17.9714 78.8254 17.5266 79.3092C17.2025 79.6592 16.9522 79.9134 16.427 79.4987C15.4593 78.734 14.3708 78.705 13.2958 79.3092C12.3281 79.851 11.8922 80.7049 11.9414 81.6212L11.9436 81.6234Z" fill="#002F4B"/>
<path d="M67.1853 77.7174C68.0391 77.7174 68.8951 77.7308 69.7488 77.7129C70.2159 77.704 70.5579 77.791 70.578 78.3483C70.5981 78.9258 70.3098 79.0997 69.76 79.1331C67.934 79.2424 67.9363 79.2602 67.9407 81.0817C67.943 82.3792 67.9296 83.6768 67.9475 84.9744C67.9542 85.5384 67.8379 85.8773 67.1518 85.8706C66.5059 85.8661 66.3092 85.6053 66.3159 85.0033C66.3338 83.3714 66.2802 81.7394 66.3226 80.1096C66.3428 79.3226 66.0656 79.1019 65.2945 79.0885C64.7157 79.0796 63.6653 79.5723 63.7167 78.355C63.7636 77.2291 64.7313 77.8311 65.2901 77.7553C65.9092 77.6706 66.5506 77.7352 67.1831 77.7352V77.7129L67.1853 77.7174Z" fill="#002F4B"/>
<path d="M111.366 85.4671C111.415 85.8372 111.167 85.8773 110.881 85.8461C110.595 85.8149 110.459 85.6098 110.316 85.3734C109.983 84.825 110.021 83.8708 109.267 83.7927C107.985 83.659 106.675 83.7571 105.379 83.7883C105.017 83.7972 104.976 84.1829 104.847 84.4371C104.643 84.8317 104.473 85.2464 104.248 85.6276C104.102 85.8751 103.828 85.9308 103.559 85.8394C103.267 85.7391 103.314 85.5072 103.412 85.2954C104.516 82.9076 105.602 80.5132 106.744 78.1432C107.039 77.5324 107.665 77.4789 107.96 78.083C109.131 80.4775 110.215 82.9166 111.333 85.3378C111.348 85.3712 111.353 85.4091 111.366 85.4649V85.4671ZM107.374 78.8388C107.03 79.5946 106.809 80.0539 106.608 80.5221C105.408 83.2956 105.097 82.8497 108.215 82.8853C108.327 82.8853 108.436 82.8853 108.548 82.8787C108.939 82.8608 109.093 82.6735 108.93 82.3034C108.458 81.2355 107.973 80.1698 107.374 78.8388Z" fill="#002F4B"/>
<path d="M79.7236 81.7574C79.7236 80.792 79.7236 79.8244 79.7236 78.859C79.7236 78.295 79.6387 77.7198 80.5081 77.6975C81.4557 77.6729 81.3618 78.3061 81.3641 78.9036C81.3685 80.4643 81.3953 82.0249 81.3551 83.5855C81.3372 84.2744 81.592 84.5108 82.2625 84.4818C83.1185 84.4439 83.9745 84.4862 84.8327 84.4773C85.3334 84.4729 85.5971 84.6668 85.5904 85.1974C85.5837 85.7504 85.2685 85.8752 84.7903 85.8707C83.3755 85.8596 81.9586 85.8551 80.5438 85.8707C79.918 85.8774 79.6878 85.5965 79.7012 84.9901C79.7258 83.9133 79.7079 82.8364 79.7079 81.7574C79.7124 81.7574 79.7191 81.7574 79.7236 81.7574Z" fill="#002F4B"/>
<path d="M107.661 49.4029C107.681 49.6726 107.812 50.1029 107.345 50.3638C106.901 50.6135 106.677 50.2144 106.373 50.0383C105.823 49.7194 105.215 49.8309 104.625 49.8309C103.845 49.8309 102.154 48.6582 101.926 47.9693C101.814 47.6304 102.055 47.5702 102.252 47.5212C103.658 47.1756 105.07 46.8523 106.478 46.5112C106.907 46.4087 107.086 46.6338 107.216 46.9883C107.484 47.7285 107.62 48.491 107.661 49.4029Z" fill="#002F4B"/>
<path d="M123.734 81.7106C123.734 80.5958 123.732 79.4833 123.734 78.3686C123.734 78.0721 123.725 77.7354 124.143 77.702C124.579 77.6685 124.736 77.945 124.736 78.3307C124.74 80.6337 124.74 82.9346 124.736 85.2376C124.736 85.5609 124.635 85.8396 124.244 85.844C123.779 85.8507 123.719 85.5297 123.719 85.164C123.721 84.0136 123.719 82.861 123.719 81.7106H123.732H123.734Z" fill="#002F4B"/>
<path d="M101.09 81.7996C101.09 80.6871 101.085 79.5746 101.094 78.4643C101.097 78.15 101.007 77.7331 101.517 77.7175C101.953 77.7041 102.073 78.0118 102.073 78.3863C102.078 80.647 102.08 82.9077 102.08 85.1706C102.08 85.5296 102.002 85.8618 101.546 85.8573C101.05 85.8528 101.088 85.4738 101.088 85.1372C101.088 84.0247 101.088 82.9122 101.088 81.8019L101.09 81.7996Z" fill="#002F4B"/>
<path d="M46.4181 47.6974H34.8008C38.6717 47.1133 42.5449 46.7276 46.4181 47.6974Z" fill="#002F4B"/>
</g>
<defs>
<clipPath id="clip0_172_322">
<rect width="136" height="86" fill="white"/>
</clipPath>
</defs>
</svg>
