<svg width="28" height="28" viewBox="0 0 28 28" fill="none" xmlns="http://www.w3.org/2000/svg">
<path d="M9.37109 11.3534C9.37109 11.5287 9.44071 11.6967 9.56463 11.8207C9.68855 11.9446 9.85662 12.0142 10.0319 12.0142C10.2071 12.0142 10.3752 11.9446 10.4991 11.8207C10.623 11.6967 10.6926 11.5287 10.6926 11.3534V10.0319C10.6926 9.85662 10.623 9.68855 10.4991 9.56463C10.3752 9.44071 10.2071 9.37109 10.0319 9.37109C9.85662 9.37109 9.68855 9.44071 9.56463 9.56463C9.44071 9.68855 9.37109 9.85662 9.37109 10.0319V11.3534ZM9.37109 11.3534C9.37109 13.1059 10.0673 14.7866 11.3065 16.0258C12.5457 17.265 14.2264 17.9612 15.9789 17.9612H17.3004C17.4757 17.9612 17.6437 17.8916 17.7677 17.7677C17.8916 17.6437 17.9612 17.4757 17.9612 17.3004C17.9612 17.1252 17.8916 16.9571 17.7677 16.8332C17.6437 16.7093 17.4757 16.6396 17.3004 16.6396H15.9789C15.8036 16.6396 15.6355 16.7093 15.5116 16.8332C15.3877 16.9571 15.3181 17.1252 15.3181 17.3004C15.3181 17.4757 15.3877 17.6437 15.5116 17.7677C15.6355 17.8916 15.8036 17.9612 15.9789 17.9612" stroke="#002F4B" stroke-width="2" stroke-linecap="round" stroke-linejoin="round"/>
<circle cx="13.6661" cy="13.6661" r="12.6661" stroke="#002F4B" stroke-width="2"/>
</svg>
