<svg width="35" height="35" viewBox="0 0 35 35" fill="none" xmlns="http://www.w3.org/2000/svg">
<path d="M23.1079 5.6731H11.7614C8.62814 5.6731 6.08813 8.2131 6.08813 11.3463V22.6929C6.08813 25.8261 8.62814 28.3661 11.7614 28.3661H23.1079C26.2411 28.3661 28.7811 25.8261 28.7811 22.6929V11.3463C28.7811 8.2131 26.2411 5.6731 23.1079 5.6731Z" stroke="#002F4B" stroke-width="2" stroke-linecap="round" stroke-linejoin="round"/>
<path d="M17.4349 21.2748C19.7848 21.2748 21.6898 19.3698 21.6898 17.0198C21.6898 14.6699 19.7848 12.7649 17.4349 12.7649C15.0849 12.7649 13.1799 14.6699 13.1799 17.0198C13.1799 19.3698 15.0849 21.2748 17.4349 21.2748Z" stroke="#002F4B" stroke-width="2" stroke-linecap="round" stroke-linejoin="round"/>
<path d="M23.8171 10.6372V10.6385" stroke="#002F4B" stroke-width="2" stroke-linecap="round" stroke-linejoin="round"/>
</svg>
