<svg width="34" height="34" viewBox="0 0 34 34" fill="none" xmlns="http://www.w3.org/2000/svg">
<path d="M3.90454 29.6507L6.26581 24.2103C4.45931 21.6448 3.65076 18.5079 3.9919 15.3884C4.33304 12.2689 5.80041 9.38111 8.11863 7.26706C10.4369 5.153 13.4466 3.958 16.583 3.90629C19.7193 3.85459 22.7668 4.94974 25.1534 6.98623C27.54 9.02272 29.1016 11.8606 29.5453 14.9671C29.989 18.0737 29.2842 21.2355 27.5632 23.8592C25.8422 26.4828 23.2232 28.388 20.1979 29.217C17.1725 30.0461 13.9487 29.7421 11.1315 28.3622L3.90454 29.6507" stroke="#002F4B" stroke-width="2" stroke-linecap="round" stroke-linejoin="round"/>
<path d="M12.4946 13.8764C12.4946 14.0676 12.5706 14.2509 12.7058 14.3861C12.8409 14.5213 13.0243 14.5973 13.2155 14.5973C13.4067 14.5973 13.59 14.5213 13.7252 14.3861C13.8604 14.2509 13.9363 14.0676 13.9363 13.8764V12.4347C13.9363 12.2435 13.8604 12.0602 13.7252 11.925C13.59 11.7898 13.4067 11.7139 13.2155 11.7139C13.0243 11.7139 12.8409 11.7898 12.7058 11.925C12.5706 12.0602 12.4946 12.2435 12.4946 12.4347V13.8764ZM12.4946 13.8764C12.4946 15.7882 13.2541 17.6217 14.6059 18.9736C15.9578 20.3254 17.7913 21.0849 19.7031 21.0849H21.1448C21.336 21.0849 21.5193 21.0089 21.6545 20.8738C21.7897 20.7386 21.8657 20.5552 21.8657 20.364C21.8657 20.1729 21.7897 19.9895 21.6545 19.8543C21.5193 19.7191 21.336 19.6432 21.1448 19.6432H19.7031C19.5119 19.6432 19.3286 19.7191 19.1934 19.8543C19.0582 19.9895 18.9823 20.1729 18.9823 20.364C18.9823 20.5552 19.0582 20.7386 19.1934 20.8738C19.3286 21.0089 19.5119 21.0849 19.7031 21.0849" stroke="#002F4B" stroke-width="2" stroke-linecap="round" stroke-linejoin="round"/>
</svg>
