<?xml version="1.0" encoding="UTF-8"?><svg id="Capa_1" xmlns="http://www.w3.org/2000/svg" viewBox="0 0 813.88 533.04"><defs><style>.cls-1{fill:#002f4b;}</style></defs><path class="cls-1" d="M255.12,146.81c0-20.6-.06-40.32,.02-60.04,.08-21.47-.14-42.94,.62-64.41,.21-5.95,2.56-7.26,7.91-7.18,15.83,.24,31.68,.31,47.51-.07,6.09-.15,7.78,1.97,7.75,7.86-.19,39.49-.04,78.97-.1,118.46,0,4.11-.2,7.77,5.13,8.82,2.87,.57,3.05,3.27,3.05,5.77,0,10.41-.12,20.83,.11,31.24,.1,4.5-2.27,5.5-6.02,5.69-12.57,.62-25.13,1.44-37.31,4.99-22.64,6.59-38.76,22.38-54.36,38.8-4.32,4.55-7.85,9.84-12.08,14.47-3.87,4.23-1.95,5.62,2.44,6.71,5.01,1.24,10.24,1.87,14.74,5.42-5.75-.59-11.51-1.15-17.26-1.77-4.31-.47-8.61-.99-12.91-1.55-14.12-1.83-24.29,4.35-29.91,16.72-3.81,8.39-8.76,10.85-17.84,10.8-44.02-.22-88.04,.4-132.06,.7-3.14,.02-6.34,.29-11.06-1.46,14.53-1.55,27.33-2.84,40.1-4.3,10.55-1.2,21.08-2.5,31.43-5.12,5.37-1.36,6.73-4.14,6.44-9.29-.69-12.33-.74-24.7-1.39-37.03-.24-4.59,.63-7.18,5.86-6.4,4.33,.65,4.87-1.88,4.83-5.49-.14-15.62,.08-31.24-.15-46.86-.07-4.78,1.42-6.43,6.33-6.35,15.4,.27,30.81,.24,46.21-.02,4.6-.08,5.96,1.41,5.92,5.94-.18,18.22-.04,36.45,.03,54.67,0,2.64-1.04,5.96,3.68,5.87,4.79-.09,3.46-3.55,3.45-6.08-.01-6.94,.02-13.89-.47-20.8-.35-4.99,1.87-6.54,6.38-6.59,6.72-.08,13.44-.7,20.15-.55,5.3,.12,7.3-1.69,7.12-7.17-.46-13.43-.31-26.89-.64-40.33-.1-4.23,.82-6.35,5.66-6.28,14.53,.23,29.07,.12,43.61-.01,2.51-.02,4.53,.95,7.08,2.2Z"/><path class="cls-1" d="M239.29,420.11c-.08-2.43,2.44-1.16,2.79-3.67-77.19-2.76-154.29-5.51-231.39-8.27,0-.37,.01-.74,.02-1.1H183.14c-12.13-30.79-9.69-62.48-9.45-93.94,0-1.03-.07-2.2,1.48-2.98,1.6,4.43-.95,9.12,1.04,15.08,1.31-5.03,2.26-8.48,3.09-11.95,1.12-4.65,2.74-9.08,8.35-9.4,5.83-.33,7.38,4.24,8.84,8.74,6.56,20.22,11.68,40.85,16.85,61.45,1.45,5.77,3.21,7.65,9.62,5.79,14.02-4.07,28.45-1.3,42.7-.73,7.14,.29,14.28,.96,21.4,1.72,5.47,.58,7.56-.46,6.59-6.93-2.86-18.98-2.97-38.03,1.53-56.88,1.82-7.64,4.12-15.11,8.97-21.44,4.24-5.54,9.65-6.27,15.35-2.34,4.62,3.19,8.5,9.77,9.68,17.15-4.48-2.4-8.77-3.3-13.19-1.17-4.94,2.37-8.37,6.29-10.75,10.97-11.93,23.45-13.1,47.58-2.26,71.51,7.23,15.96,20.51,16.31,30.26,1.71,4.49-6.73,6.81-14.36,9.07-24.09,2.37,9.03,8.14,8,13.64,7.71,7.14-.37,14.28-.82,21.43-.95,3.03-.06,5.4-1.03,7.67-2.9,4.19-3.43,8.65-6.56,12.78-10.07,16.1-13.7,34.92-17.92,55.63-17.55,35.79,.64,71.6,.13,107.39,.79,13.01,.24,26.02,.67,39.02,.41,8.7-.17,15.61,2.61,21.42,8.91,4.41,4.78,9.01,9.38,13.53,14.06,2.26,2.34,3.58,1.9,4.17-1.32,1.17-6.42,2.08-12.84,.76-19.54-.86,4.16-1.72,8.33-2.59,12.49-.26,1.23-.08,2.8-1.61,3.27-1.94,.61-2.63-1.12-3.44-2.3-3.85-5.56-7.49-11.29-8.39-18.14-.41-3.08-1.56-4.03-4.55-3.87-1.9,.1-5.1,1.2-5.26-1.94-.15-2.96,.98-6.53,4.09-7.61,6.62-2.29,13.69-1.97,20.6-2.37,2.29-.13,2.34,2.1,2.42,3.87,.12,2.58-.14,5.28,.5,7.73,6.6,25.2,.92,47.11-17.2,65.82-.27,.28-.33,.77-.85,2.03,51.43,1.53,102.52,3.04,154.3,4.58-1.64,2.76-3.51,2.07-5.02,2.08-37.97,.24-75.95,.12-113.91,.72-46.2,.72-92.4,1.11-138.6,1.29-25.8,.1-51.61,.5-77.41,1.21-42.08,1.16-84.17,.71-126.26,1.18-23.64,.26-47.28,.78-70.91,1.17-2.12,.04-4.24,0-6.37,0Zm325.62-14.94c-1.59-2.42-3.64-4.71-4.74-7.38-2.19-5.31-5.94-6.34-11.3-6.23-16.44,.34-32.88,.12-49.33,.11-6.27,0-12.55-.18-18.82,.02-6.38,.2-6.54,6.47-7.24,10.04-.79,4.06,4.21,1.95,6.46,2.04,16.63,.66,33.27,1.08,49.92,1.36,11.55,.19,23.11,.04,35.05,.04Zm-301.81,2c0-.09,0-.19,0-.28,12.36,0,24.72,.03,37.07-.04,1.36,0,3.31,.61,3.8-1.46,.71-2.96-8.18-12.79-11.45-12.88-17.54-.52-35.09-.85-52.61-1.72-6.74-.34-12.44-.35-13.35,8.23-.09,.81-.61,1.65-1.14,2.32-4.61,5.84-.83,5.92,3.83,5.88,11.28-.12,22.55-.04,33.83-.04Zm143.27-1.4c0-.31,0-.63,0-.94,4.76,0,9.52,.01,14.28,0q9.1-.03,5.82-8.07c-.57-1.4-1.28-2.79-1.61-4.25-1.01-4.48-3.41-6.17-8.25-5.98-9.73,.38-19.52,.4-29.23-.22-7.08-.45-12.09,.78-13.91,8.56-.56,2.41-2.35,4.63-3.92,6.67-2.79,3.62-1.19,4.28,2.41,4.26,11.47-.07,22.94-.03,34.41-.03Zm-227.59-59.91c-2.2,14.11-1.18,28.02,2.12,41.78,.83,3.48,1.31,8.63,5.37,8.78,4.64,.16,5.22-5.34,6.07-8.83,4.48-18.34,4.77-36.85,.93-55.37-.62-2.97-1.37-5.91-3-8.55-2.09-3.38-4.65-3.51-6.39-.15-2.7,5.26-4.89,10.82-4.41,18.07,2.56-2.85,1.14-6.46,3.86-8.03,2.59,.49,1.08,4.32,3.79,4.56,2.35-1.17,.31-4.34,2.56-5.52,5.43,7.18,5.91,17.72,1.09,24.91-.84,1.26-2.38,2.66-.82,3.93,6,4.84,3.87,10.81,2.72,16.73-1.17,6.01-1.11,5.99-6.42,5.58-.4-.03-.9,.76-1.3,1.22-1.31,1.53-2.42,.85-2.82-.58-1.97-6.88-3.8-13.81-2.52-21.08,.32-1.81,3.48-2.99,1.87-5.04-3.03-3.86-1.93-8.26-2.73-12.42Z"/><path class="cls-1" d="M529.32,228.07c0-6.36,.02-12.33,0-18.3-.01-2.58,.24-5.03,3.66-4.82,2.74,.17,6.78-1.53,7.09,3.25,.27,4.11,2.79,3.55,5.41,3.56,3.52,.01,3.56-2.31,3.6-4.86,.03-2.6,.56-5.23,.32-7.79-.44-4.83,.78-7.44,6.34-6.79,4.73,.55,4.29-3.2,4.27-6.22-.11-15.19-.02-30.38-.55-45.55-.21-5.88,1.75-7.26,7.38-7.27,22.98-.04,45.97-.47,68.95-1.06,5.13-.13,6.83,1.48,6.76,6.62-.23,18.01-.01,36.03-.13,54.04-.02,3.88,.65,6.41,5.31,5.83,4.24-.52,5.05,2.05,5,5.62-.11,7.81,.16,15.63-.11,23.44-.15,4.25,1.3,5.72,5.57,5.73,4.31,0,5.59-1.59,5.57-5.77-.12-29.08-.05-58.17-.02-87.25,0-7.65,.03-7.66,7.04-5.41,8.26,2.65,16.47,5.45,24.77,7.92,3.65,1.09,5.43,2.87,5.17,6.9-.31,4.76,.11,9.56-.14,14.32-.2,3.79,1.34,4.96,4.94,4.82,5.2-.21,10.43,.24,15.62-.11,4.7-.31,6,1.59,5.94,6.02-.19,13.89,.13,27.79-.15,41.67-.1,4.98,1.16,7.06,6.49,6.84,10.5-.44,10.03-.97,10.01,10.33-.01,9.77,.23,19.54-.11,29.3-.15,4.4,1.26,6.01,5.61,6.57,17.21,2.19,34.38,4.72,51.57,7.14,.76,.11,1.49,.37,2.68,.68-2.46,2.05-4.92,1.62-7.16,1.55-31.68-.91-63.36,.17-95.02,.73-20.41,.36-40.74-.64-61.11-.71-4.52-.02-8.17-1.28-11.73-4.37-11.72-10.19-26.09-14.77-41.7-19.24,1.92,7.02,5.57,12.38,5.43,18.93-2.84-.79-3.09-3.24-4-5.03-7.03-13.89-17.81-21.88-33.81-20.31-8.79,.86-14.61-2.22-19.7-9.19-5.63-7.7-12.93-14-19.82-20.61-13.55-13.01-29.98-19.71-48.35-21.75-5.24-.58-6.39-2.75-6.28-7.46,.19-8.67,.02-17.36-.33-26.03-.18-4.42,1.11-6.13,5.84-6.06,16.06,.25,32.12,.28,48.18-.03,5.1-.1,6.15,1.59,5.84,6.38-1.02,15.8-1.14,31.62,.4,47.42,.87,8.91,2.55,12.18,9.47,16.38Z"/><path class="cls-1" d="M396.15,249.56c10.63,5.72,20.31,12.63,29.25,20.8-2.18,1.73-3.36,.26-4.6-.35-15.4-7.59-31.53-13.29-47.81-18.66-10.77-3.56-21.51-.24-32.22,.06-11.24,.31-22.46,1.79-33.66,3-4.83,.52-6.97-.69-7.28-6.05-.54-9.29-1.84-18.55-3.11-27.78-1.06-7.72-2.46-15.42-10.56-19.9,4.01-1.66,6.94-.27,8.81,2.06,3.69,4.61,8.17,3.97,12.95,3.08,26.16-4.89,52.64-5.25,79.06-4.43,31.62,.98,63.15,3.82,94.5,8.34,.82,.12,1.67,.01,2.66-.55-6.33-3.97-13.29-6.14-22.29-7.4,6.58-2.09,11.17,.21,15.64,1.4,20.51,5.46,35.91,18.67,49.96,33.77,2.8,3.01,5.44,6.18,8.07,9.35,1.04,1.26,3.29,2.24,2.45,4.16-.94,2.16-3.07,.73-4.65,.59-34.14-2.97-68.35-4.38-102.62-4.03-11.34,.11-22.68,.02-34.01,.02-.18,.84-.37,1.68-.55,2.52Z"/><path class="cls-1" d="M350.48,138.37c0-15.83,.13-31.65-.08-47.48-.06-4.7,.92-5.63,5.5-3.74,24.22,10.01,48.53,19.8,72.89,29.48,3.92,1.56,5.78,3.41,5.73,7.97-.24,20.81-.17,41.62,0,62.43,.04,4.52-.73,6.65-6.08,6.22-23.98-1.91-48.01-2.51-72.06-1.6-4.98,.19-6.15-1.73-6.06-6.48,.3-15.6,.11-31.22,.11-46.82h.03Z"/><path class="cls-1" d="M481.78,328.4c-16.49,0-32.97-.11-49.46,.05-6.69,.07-10.28-3.79-13.01-9.07-1.59-3.06-1.11-5.73,1.52-8.17,11.25-10.39,22.6-19.37,39.38-20.24,29.94-1.55,59.82-1.48,89.74-.58,13.44,.4,26.99,.29,40.16,2.91,12,2.39,18.72,12.08,23.99,22.06,2.89,5.49-3.27,13.29-10,13.6-10.83,.51-21.67,.73-32.51,.77-29.94,.1-59.87,.03-89.81,.03,0-.46,0-.92,0-1.37Z"/><path class="cls-1" d="M300.69,363.86c-.74-3.14,2.21-3.86,4.49-4.85,3.4-1.48,4.42-3.09,.44-4.89-4.53-2.05-4.69-5.3-3.85-9.61,1.27-6.44,3.24-12.54,6.4-18.29,1.94-3.54,3.61-4.44,6.45-.55,6.24,8.53,6.57,8.52,11.16-.82,2.49-5.06,4.24-3.67,6.49-.06,4.01,6.44,5.15,13.69,6.14,21,.32,2.35-.84,3.65-2.64,4.71-2.43,1.43-4.76,3.03-7.28,4.27-3.65,1.79-4.19,3.06-.2,5.4,10.78,6.33,11.04,7.42,6.18,19.11-1.58,3.79-3.42,7.45-6.19,10.6-2.86,3.26-4.9,3.26-6.31-1.08-1.82-5.6-4.01-6.68-7.32-.87-2.74,4.8-5.06,3.12-7.43-.64-4.43-7.03-5.55-14.92-6.52-23.42Z"/><path class="cls-1" d="M259.23,259.7c-8.17-.49-16.38-.69-24.51-1.57-6.24-.68-7.94-4.75-4.59-11.01,4.55-8.5,11.12-15.45,18.45-21.62,7.65-6.44,16.12-11.72,24.98-16.32,8.68-4.51,13.36-2.3,15.03,7.33,1.96,11.3,3.42,22.69,5.09,34.04,.09,.64,.47,1.45,.22,1.9-3.39,6.17-9.22,2.28-13.88,3.15-2.52,.47-5.46,.8-5.79-3.83-.8-11.51-3.43-13.42-14.67-12.23-3.87,.41-7.79,.43-11.66,.89-5.54,.67-7.59,4.9-8.13,9.56-.43,3.7,2.07,5.77,5.97,6.22,4.49,.53,8.92,1.48,13.38,2.25,.03,.41,.06,.82,.09,1.22Z"/><path class="cls-1" d="M339.2,260.49c13.34,3.79,24.88,8.6,31.29,20.95,1.61,3.11,3.5,4.12,6.86,4.7,19,3.27,38.48,2.36,57.54,7.22-11.74-3.46-19.26,4.42-27.67,9.8-2.3,1.47-4.5,1.94-7.27,1.96-9.83,.04-19.48-1.61-29.57,1.36-8.53,2.51-18.01-.86-27.04-1.9-3.16-.37-4.17-3.54-5.13-6.2-1.04-2.89,1.46-3.83,3.2-4.88,5.82-3.53,10.45-9.26,18.17-9.36,3.06-.04,1.59-2.36,.87-3.81-3.3-6.66-8.64-11.29-14.95-14.97-1.98-1.16-4.57-1.49-6.3-4.87Zm25.86,29.19c-10.62-4.71-15.78,2.59-21.74,6.89-2.98,2.15-.61,4.36,1.99,4.79,4.78,.78,9.64,1.03,15.11,1.57-2.45-3.59-9.15-2.32-7.39-8.22,1.55-5.17,5.82-5.76,12.03-5.01Z"/><path class="cls-1" d="M366.47,369.07c-7.65-11.92-11.37-25.18-14.46-38.63-.79-3.45,1.88-4.71,4.77-4.51,17.05,1.17,34.09,2.4,51.12,3.85,3.55,.3,6.29,2.86,6.06,6.51-.29,4.73-4.49,3.12-7.14,3.07-11.24-.19-22.49-.45-33.7-1.15-5.99-.37-7.45,2.37-7.35,7.65,.14,7.71,2.43,15.31,.7,23.21Z"/><path class="cls-1" d="M638.05,303.69c.11,1.58,.88,4.09-1.84,5.61-2.59,1.45-3.9-.87-5.67-1.9-3.2-1.87-6.75-1.22-10.18-1.22-4.55,0-14.41-6.86-15.73-10.88-.65-1.97,.76-2.34,1.9-2.62,8.19-2.02,16.42-3.91,24.62-5.9,2.5-.6,3.55,.72,4.3,2.79,1.57,4.32,2.36,8.77,2.59,14.1Z"/><path class="cls-1" d="M281.18,293.73h-67.69c22.56-3.41,45.12-5.67,67.69,0Z"/><g><path class="cls-1" d="M73.71,481.95c2.06-3.61,4.87-6.42,8.44-8.44,3.57-2.02,7.57-3.02,12-3.02,5.18,0,9.73,1.33,13.63,3.99,3.9,2.66,6.62,6.34,8.17,11.03h-10.7c-1.06-2.21-2.56-3.88-4.49-4.98-1.93-1.11-4.15-1.66-6.68-1.66-2.7,0-5.11,.63-7.21,1.89-2.1,1.26-3.74,3.05-4.92,5.35-1.17,2.3-1.76,5.01-1.76,8.11s.59,5.75,1.76,8.07c1.17,2.33,2.81,4.12,4.92,5.38,2.1,1.26,4.51,1.89,7.21,1.89,2.53,0,4.75-.56,6.68-1.69,1.93-1.13,3.42-2.8,4.49-5.02h10.7c-1.55,4.74-4.27,8.43-8.14,11.07-3.88,2.64-8.43,3.96-13.66,3.96-4.43,0-8.43-1.01-12-3.02-3.57-2.02-6.38-4.82-8.44-8.41s-3.09-7.66-3.09-12.23,1.03-8.65,3.09-12.26Z"/><path class="cls-1" d="M152.37,508.63h-18.48l-3.06,8.84h-9.77l16.68-46.46h10.83l16.68,46.46h-9.84l-3.06-8.84Zm-2.53-7.44l-6.71-19.41-6.71,19.41h13.43Z"/><path class="cls-1" d="M195.44,517.47l-10.24-18.08h-4.39v18.08h-9.31v-46.39h17.41c3.59,0,6.65,.63,9.17,1.9,2.53,1.26,4.42,2.97,5.68,5.12s1.89,4.55,1.89,7.21c0,3.06-.89,5.81-2.66,8.27-1.77,2.46-4.41,4.15-7.91,5.08l11.1,18.81h-10.77Zm-14.62-25.06h7.78c2.53,0,4.41-.61,5.65-1.83,1.24-1.22,1.86-2.91,1.86-5.08s-.62-3.78-1.86-4.95c-1.24-1.17-3.12-1.76-5.65-1.76h-7.78v13.63Z"/><path class="cls-1" d="M262.7,497.6c1.68,2.13,2.53,4.56,2.53,7.31,0,2.48-.61,4.66-1.83,6.55-1.22,1.88-2.98,3.36-5.28,4.42-2.3,1.06-5.03,1.59-8.18,1.59h-20.01v-46.39h19.14c3.15,0,5.86,.51,8.14,1.53,2.28,1.02,4.01,2.44,5.18,4.25,1.17,1.82,1.76,3.88,1.76,6.18,0,2.7-.72,4.96-2.16,6.78-1.44,1.82-3.36,3.1-5.75,3.85,2.61,.49,4.76,1.79,6.45,3.92Zm-23.46-7.38h8.51c2.22,0,3.92-.5,5.12-1.5s1.79-2.43,1.79-4.29-.6-3.3-1.79-4.32c-1.2-1.02-2.9-1.53-5.12-1.53h-8.51v11.63Zm14.65,18.08c1.26-1.06,1.89-2.57,1.89-4.52s-.67-3.56-1.99-4.69-3.12-1.7-5.38-1.7h-9.17v12.5h9.37c2.26,0,4.02-.53,5.28-1.59Z"/><path class="cls-1" d="M281.84,471.08v28.71c0,3.15,.82,5.55,2.46,7.21,1.64,1.66,3.94,2.49,6.91,2.49s5.34-.83,6.98-2.49c1.64-1.66,2.46-4.06,2.46-7.21v-28.71h9.37v28.65c0,3.94-.85,7.28-2.56,10-1.71,2.73-3.99,4.77-6.85,6.15s-6.04,2.06-9.54,2.06-6.59-.69-9.4-2.06c-2.81-1.37-5.04-3.42-6.68-6.15-1.64-2.73-2.46-6.06-2.46-10v-28.65h9.3Z"/><path class="cls-1" d="M326.27,516.28c-2.59-1.11-4.64-2.7-6.15-4.78-1.51-2.08-2.28-4.54-2.33-7.38h9.97c.13,1.91,.81,3.41,2.03,4.52,1.22,1.11,2.89,1.66,5.02,1.66s3.88-.52,5.12-1.56c1.24-1.04,1.86-2.4,1.86-4.09,0-1.37-.42-2.5-1.26-3.39-.84-.89-1.89-1.58-3.16-2.09-1.26-.51-3-1.07-5.22-1.69-3.01-.89-5.46-1.76-7.34-2.63-1.88-.86-3.5-2.17-4.85-3.92-1.35-1.75-2.03-4.09-2.03-7.01,0-2.75,.69-5.14,2.06-7.18,1.37-2.04,3.3-3.6,5.78-4.69,2.48-1.08,5.32-1.63,8.51-1.63,4.79,0,8.67,1.16,11.66,3.49s4.64,5.57,4.95,9.74h-10.24c-.09-1.59-.76-2.91-2.03-3.95-1.26-1.04-2.94-1.56-5.02-1.56-1.82,0-3.27,.47-4.35,1.4-1.09,.93-1.63,2.28-1.63,4.05,0,1.24,.41,2.27,1.23,3.09,.82,.82,1.84,1.48,3.06,1.99,1.22,.51,2.93,1.1,5.15,1.76,3.01,.89,5.47,1.77,7.38,2.66,1.9,.89,3.54,2.22,4.92,3.99,1.37,1.77,2.06,4.1,2.06,6.98,0,2.48-.64,4.79-1.93,6.91-1.29,2.13-3.17,3.82-5.65,5.08-2.48,1.26-5.43,1.9-8.84,1.9-3.23,0-6.15-.55-8.74-1.66Z"/><path class="cls-1" d="M368.77,471.08v46.39h-9.3v-46.39h9.3Z"/><path class="cls-1" d="M417.62,517.47h-9.3l-21.07-31.84v31.84h-9.3v-46.46h9.3l21.07,31.9v-31.9h9.3v46.46Z"/><path class="cls-1" d="M436.1,478.59v11.63h15.62v7.38h-15.62v12.3h17.61v7.58h-26.92v-46.46h26.92v7.58h-17.61Z"/><path class="cls-1" d="M469.43,516.28c-2.59-1.11-4.64-2.7-6.15-4.78-1.51-2.08-2.28-4.54-2.33-7.38h9.97c.13,1.91,.81,3.41,2.03,4.52,1.22,1.11,2.89,1.66,5.02,1.66s3.88-.52,5.12-1.56c1.24-1.04,1.86-2.4,1.86-4.09,0-1.37-.42-2.5-1.26-3.39-.84-.89-1.89-1.58-3.16-2.09-1.26-.51-3-1.07-5.22-1.69-3.01-.89-5.46-1.76-7.34-2.63-1.88-.86-3.5-2.17-4.85-3.92-1.35-1.75-2.03-4.09-2.03-7.01,0-2.75,.69-5.14,2.06-7.18,1.37-2.04,3.3-3.6,5.78-4.69,2.48-1.08,5.32-1.63,8.51-1.63,4.78,0,8.67,1.16,11.66,3.49s4.64,5.57,4.95,9.74h-10.23c-.09-1.59-.76-2.91-2.03-3.95-1.26-1.04-2.94-1.56-5.02-1.56-1.82,0-3.27,.47-4.35,1.4-1.09,.93-1.63,2.28-1.63,4.05,0,1.24,.41,2.27,1.23,3.09,.82,.82,1.84,1.48,3.06,1.99,1.22,.51,2.93,1.1,5.15,1.76,3.01,.89,5.47,1.77,7.38,2.66s3.54,2.22,4.92,3.99c1.37,1.77,2.06,4.1,2.06,6.98,0,2.48-.64,4.79-1.93,6.91-1.29,2.13-3.17,3.82-5.65,5.08-2.48,1.26-5.43,1.9-8.84,1.9-3.24,0-6.15-.55-8.74-1.66Z"/><path class="cls-1" d="M509.9,516.28c-2.59-1.11-4.64-2.7-6.15-4.78-1.51-2.08-2.28-4.54-2.33-7.38h9.97c.13,1.91,.81,3.41,2.03,4.52,1.22,1.11,2.89,1.66,5.02,1.66s3.88-.52,5.12-1.56c1.24-1.04,1.86-2.4,1.86-4.09,0-1.37-.42-2.5-1.26-3.39-.84-.89-1.89-1.58-3.16-2.09-1.26-.51-3-1.07-5.22-1.69-3.01-.89-5.46-1.76-7.34-2.63-1.88-.86-3.5-2.17-4.85-3.92-1.35-1.75-2.03-4.09-2.03-7.01,0-2.75,.69-5.14,2.06-7.18,1.37-2.04,3.3-3.6,5.78-4.69,2.48-1.08,5.32-1.63,8.51-1.63,4.78,0,8.67,1.16,11.66,3.49s4.64,5.57,4.95,9.74h-10.23c-.09-1.59-.76-2.91-2.03-3.95-1.26-1.04-2.94-1.56-5.02-1.56-1.82,0-3.27,.47-4.35,1.4-1.09,.93-1.63,2.28-1.63,4.05,0,1.24,.41,2.27,1.23,3.09,.82,.82,1.84,1.48,3.06,1.99,1.22,.51,2.93,1.1,5.15,1.76,3.01,.89,5.47,1.77,7.38,2.66s3.54,2.22,4.92,3.99c1.37,1.77,2.06,4.1,2.06,6.98,0,2.48-.64,4.79-1.93,6.91-1.29,2.13-3.17,3.82-5.65,5.08-2.48,1.26-5.43,1.9-8.84,1.9-3.24,0-6.15-.55-8.74-1.66Z"/><path class="cls-1" d="M606.97,471.61v45.86h-4.65v-36.62l-16.35,36.62h-3.39l-16.35-36.49v36.49h-4.65v-45.86h4.92l17.74,39.74,17.75-39.74h4.98Z"/><path class="cls-1" d="M622.19,471.02v46.46h-4.65v-46.46h4.65Z"/><path class="cls-1" d="M659.67,506.44h-21.14l-4.05,11.03h-4.92l16.95-45.86h5.25l16.88,45.86h-4.92l-4.05-11.03Zm-1.4-3.85l-9.17-25.12-9.17,25.12h18.34Z"/><path class="cls-1" d="M721.48,471.61v45.86h-4.65v-36.62l-16.35,36.62h-3.39l-16.35-36.49v36.49h-4.65v-45.86h4.92l17.74,39.74,17.75-39.74h4.98Z"/><path class="cls-1" d="M736.7,471.02v46.46h-4.65v-46.46h4.65Z"/></g></svg>