<?xml version="1.0" encoding="UTF-8"?><svg id="Capa_1" xmlns="http://www.w3.org/2000/svg" xmlns:xlink="http://www.w3.org/1999/xlink" viewBox="0 0 380 380"><defs><style>.cls-1{fill:url(#Degradado_sin_nombre_15);}</style><linearGradient id="Degradado_sin_nombre_15" x1="85.27" y1="85.27" x2="314.89" y2="314.89" gradientUnits="userSpaceOnUse"><stop offset="0" stop-color="#f6e7a2"/><stop offset="1" stop-color="#dcb56a"/></linearGradient></defs><circle class="cls-1" cx="190" cy="190" r="190"/><g><g><path d="M130.13,136.61c0-6.4-.02-12.38,0-18.35,.05-11.34-.16-22.69,.27-34.03,.08-2.15,.86-2.82,2.94-2.8,6.8,.08,13.6,.12,20.4-.03,2.5-.06,3.04,.95,3.03,3.22-.06,16.61,0,33.23-.04,49.84,0,1.67,.06,3.04,2.09,3.45,1.03,.21,1.33,1.11,1.33,2.11,0,4.54-.02,9.08,.04,13.62,.02,1.77-1.03,2.07-2.43,2.18-3.16,.24-6.32,.49-9.47,.84-6.35,.71-12.12,2.98-17.26,6.79-6.53,4.84-11.96,10.78-16.99,17.13-1.01,1.27-.73,1.83,.72,2.26,2.31,.68,4.79,.85,7.6,2.62-4.36-.53-7.94-.84-11.49-1.42-7.95-1.31-12.37,1.77-15.25,8.21-1.04,2.32-2.39,3.12-4.97,3.12-18.76,0-37.51,.2-56.27,.32-1.5,.01-3,0-4.5,0,0-.25-.01-.5-.02-.75,3.16-.29,6.33-.52,9.49-.89,6.56-.77,13.16-1.3,19.61-2.89,2.19-.54,2.9-1.61,2.77-3.83-.3-5.34-.35-10.7-.59-16.04-.07-1.63,.4-2.44,2.11-2.19,1.99,.29,2.4-.69,2.38-2.51-.1-6.26,.05-12.53-.08-18.79-.05-2.37,.46-3.38,3.12-3.3,6.16,.2,12.33,.17,18.49,0,2.38-.07,2.86,.81,2.83,2.97-.1,7.44-.03,14.89,0,22.33,0,1.06-.55,2.51,1.46,2.53,1.98,.02,1.53-1.37,1.52-2.47-.02-2.81,.04-5.64-.21-8.43-.22-2.52,.94-3.14,3.15-3.13,2.81,.01,5.61-.23,8.42-.23,1.88,0,2.53-.77,2.49-2.63-.14-5.71-.1-11.43-.26-17.15-.06-1.97,.49-2.74,2.57-2.71,5.89,.11,11.78,.05,17.68,0,1.12,0,2.14,.18,3.31,1.03Z"/><path d="M123.52,250.85c-.09-1.07,1.08-.39,1.01-1.54-32.11-1.15-64.32-2.3-96.54-3.45,0-.15,0-.31,0-.46H100.04c-5.07-12.88-4.05-26.14-3.95-39.31,0-.43-.03-.92,.62-1.25,.67,1.85-.4,3.81,.43,6.31,.55-2.11,.94-3.55,1.29-5,.47-1.94,1.15-3.8,3.49-3.93,2.44-.14,3.09,1.78,3.7,3.66,2.74,8.46,4.88,17.09,7.04,25.71,.61,2.42,1.34,3.2,4.02,2.42,5.86-1.7,11.89-.54,17.84-.3,2.99,.12,5.97,.4,8.94,.72,2.28,.24,3.16-.19,2.75-2.9-1.2-7.94-1.24-15.91,.64-23.8,.76-3.2,1.72-6.32,3.75-8.97,1.77-2.32,4.07-2.67,6.4-.96,2.27,1.66,3.4,4.05,4.55,7.43-2.36-1.27-4.15-1.64-6-.75-2.06,.99-3.5,2.63-4.49,4.59-4.99,9.81-5.47,19.91-.94,29.92,3.02,6.68,8.57,6.82,12.64,.72,1.88-2.81,2.85-6.01,3.79-10.08,.99,3.78,3.4,3.35,5.7,3.23,2.98-.16,5.97-.34,8.95-.4,1.27-.02,2.25-.43,3.21-1.21,1.75-1.44,3.61-2.74,5.34-4.21,6.73-5.73,14.59-7.5,23.25-7.34,14.95,.27,29.92,.05,44.87,.33,5.43,.1,10.87,.28,16.3,.17,3.63-.07,6.52,1.09,8.95,3.73,1.84,2,3.76,3.93,5.65,5.88,.95,.98,1.49,.8,1.74-.55,.5-2.69,.85-5.38,.32-8.18-.36,1.74-.72,3.49-1.08,5.23-.11,.51-.03,1.17-.67,1.37-.81,.25-1.1-.47-1.44-.96-1.61-2.33-3.13-4.72-3.51-7.59-.17-1.29-.65-1.69-1.9-1.62-.79,.04-2.13,.5-2.2-.81-.06-1.24,.41-2.73,1.71-3.18,2.76-.96,5.72-.82,8.61-.99,.95-.05,.98,.88,1.01,1.62,.05,1.08-.06,2.21,.21,3.24,2.76,10.54,.38,19.71-7.19,27.54-.11,.12-.14,.32-.36,.85,21.49,.64,42.84,1.27,64.47,1.92-.68,1.15-1.46,.87-2.1,.87-15.87,.1-31.73,.05-47.6,.3-19.3,.3-38.61,.47-57.92,.54-10.78,.04-21.57,.21-32.34,.51-17.58,.49-35.17,.3-52.76,.49-9.88,.11-19.75,.33-29.63,.49-.89,.01-1.77,0-2.65,0Zm136.04-6.25c-.67-1.01-1.52-1.97-1.98-3.09-.91-2.22-2.48-2.65-4.72-2.61-6.87,.14-13.74,.05-20.61,.05-2.62,0-5.25-.07-7.86,0-2.66,.08-2.73,2.71-3.02,4.2-.33,1.7,1.76,.82,2.7,.86,6.95,.28,13.9,.45,20.86,.57,4.83,.08,9.66,.02,14.65,.02Zm-126.27,.84s0-.07,0-.11c5.16,0,10.33,.02,15.49-.03,.6,0,1.61,.42,1.73-.72,.16-1.65-3.43-5.23-5.14-5.28-7.15-.21-14.3-.39-21.44-.7-2.82-.12-5.43-.29-5.79,3.52-.04,.42-.34,.85-.61,1.2-1.53,2-.33,2.13,1.36,2.12,4.8-.04,9.61-.01,14.41-.01Zm60.04-.59c0-.13,0-.26,0-.4,2.17,0,4.34,0,6.51,0q3.31,0,2.06-2.88c-.36-.83-.74-1.67-.95-2.54-.41-1.69-1.34-2.26-3.1-2.21-4.16,.11-8.34,.15-12.49-.11-2.96-.19-5.05,.35-5.8,3.6-.21,.93-.96,1.73-1.46,2.59-.3,.52-1.09,.93-.64,1.62,.39,.61,1.16,.32,1.77,.32,4.7,.02,9.4,0,14.11,0Zm-90.4-30.73c2.23,4.14,2.27,7.24,.15,10.71-.38,.61-.68,1.19-.06,1.67,2.63,2.05,1.36,4.6,.95,7.03-.39,2.38-.44,2.36-2.59,2.1-.17-.02-.4,.29-.56,.48-.77,.9-1.13,.18-1.29-.42-.73-2.72-1.38-5.45-1.07-8.31,.1-.9,1.58-1.47,.89-2.36-1.26-1.63-.78-3.5-1.17-5.26-.89,5.8-.48,11.54,.82,17.2,.36,1.58,.52,4.08,2.54,3.97,1.78-.1,2.11-2.53,2.47-4.16,1.69-7.61,1.86-15.26,.19-22.91-.27-1.25-.61-2.47-1.32-3.55-.59-.89-1.47-1.35-2.19-.32-1.57,2.26-2.16,4.82-2.1,7.5,.98-.78,.32-2.32,1.61-2.86,.9,.46,.42,1.73,1.46,1.94,1-.48,.18-1.79,1.24-2.44Z"/><path d="M359.4,191.14c-1.35,.77-2.27,.7-3.15,.69-16.32-.26-32.63,.28-48.94,.44-5.79,.06-11.59-.34-17.39-.48-1.46-.03-2.54-.62-3.62-1.56-4.28-3.72-12.14-7.25-17.58-7.96,.56,2.57,2.13,4.79,2.18,7.61-1.18-.33-1.33-1.29-1.69-2.02-2.96-5.92-7.54-9.3-14.33-8.61-3.6,.37-5.94-.93-8-3.76-2.35-3.22-5.39-5.87-8.27-8.64-5.65-5.44-12.49-8.31-20.18-9.16-2.29-.25-2.81-1.2-2.75-3.29,.1-3.72-.02-7.44-.12-11.16-.04-1.5,.49-2.11,2.04-2.1,6.98,.05,13.97,.06,20.95-.01,1.75-.02,2.11,.64,2.02,2.27-.36,6.7-.57,13.42,.16,20.12,.3,2.75,.83,5.36,3.96,7.16,0-2.79,.02-5.26,0-7.73-.01-1.2,.11-2.25,1.69-2.15,1.17,.07,2.77-.5,2.85,1.53,.06,1.57,1.11,1.31,2.1,1.34,1.4,.05,1.63-.77,1.62-1.92,0-1,.21-2,.14-2.99-.17-2.09,.06-3.58,2.8-3.25,1.79,.22,1.64-1.3,1.63-2.47-.04-6.26,.04-12.53-.24-18.79-.13-2.86,.84-3.45,3.52-3.45,9.42,.02,18.85-.18,28.27-.43,2.29-.06,2.98,.68,2.95,2.93-.11,7.45,0,14.89-.06,22.34-.02,1.76,.32,2.82,2.38,2.57,1.64-.2,1.94,.86,1.93,2.23-.03,3.36,.06,6.72-.04,10.08-.05,1.68,.57,2.23,2.2,2.23,1.67,0,2.46-.41,2.45-2.29-.06-12.26,.02-24.52-.06-36.78-.02-2.36,.43-3.13,2.89-2.19,3.47,1.32,7.04,2.37,10.59,3.45,1.42,.43,2.11,1.16,2.01,2.72-.11,1.81,.13,3.65-.06,5.44-.24,2.25,.7,2.86,2.77,2.7,1.89-.15,3.82,.1,5.71-.06,2.12-.19,2.64,.72,2.61,2.67-.09,5.72,.06,11.44-.07,17.16-.05,2.21,.54,3.06,2.87,2.99,4.02-.12,4.02,.01,4.03,3.92,0,4.27,.07,8.54-.03,12.8-.04,1.71,.49,2.35,2.22,2.58,7.54,.98,15.06,2.11,23.06,3.26Z"/><path d="M142.98,159.02c1.85-.64,3.08-.03,3.94,1,1.32,1.57,2.87,1.62,4.64,1.28,10.92-2.12,21.98-2.29,33.03-1.98,12.94,.37,25.85,1.51,38.68,3.31,.79,.11,1.59,.2,2.47,0-2.59-1.7-5.48-2.56-8.5-3.06,1.39-.58,2.57-.45,5.73,.43,8.63,2.42,15.16,7.93,21.06,14.35,1.29,1.4,2.51,2.86,3.76,4.3,.35,.4,.89,.84,.44,1.37-.21,.25-.83,.22-1.25,.19-7.59-.5-15.17-1.14-22.76-1.49-11.5-.53-23-.32-34.5,.08-.14,0-.28,.19-.83,.58,4.55,2.48,8.59,5.38,12.46,8.85-1.29,.68-1.97-.17-2.66-.51-6.37-3.1-13-5.55-19.77-7.56-4.91-1.46-9.88,.08-14.82,.24-4.16,.13-8.3,.68-12.44,1.14-1.97,.22-2.69-.44-2.84-2.47-.29-4.07-.79-8.13-1.38-12.16-.45-3.04-1.05-6.1-4.46-7.89Z"/><path d="M169.97,132.81c0-6.53,.06-13.06-.04-19.59-.03-2.13,.46-2.45,2.44-1.63,10.04,4.16,20.11,8.22,30.21,12.23,1.73,.69,2.54,1.51,2.51,3.53-.11,8.62-.11,17.24,.02,25.85,.04,2.37-.76,2.88-2.98,2.7-9.84-.78-19.7-1.01-29.57-.65-1.92,.07-2.71-.44-2.66-2.58,.14-6.62,.05-13.24,.05-19.86h.02Z"/><path d="M237.65,196.29c9.23-.15,19.18,.51,29.14,.89,6.44,.25,9.9,4.38,13,9.01,1.72,2.56-.55,6.35-3.76,6.52-4.61,.25-9.24,.36-13.86,.33-19.22-.14-38.43-.38-57.65-.53-1.84-.01-3.35-.45-4.58-1.89-2.16-2.52-2.16-3.95,.34-6.19,1.62-1.45,3.33-2.81,5.07-4.11,2.59-1.94,5.42-2.92,8.75-3.24,7.6-.73,15.2-.8,23.55-.78Z"/><path d="M149.19,227.57c-.38-1.28,.62-1.76,1.66-2.2,1.33-.56,2.3-1.23,.3-2.16-1.76-.82-1.88-2.07-1.56-3.79,.53-2.89,1.41-5.61,2.88-8.14,.78-1.34,1.54-1.41,2.37-.07,.05,.08,.11,.15,.16,.22,2.6,3.45,2.67,3.49,4.68-.49,.93-1.84,1.62-1.61,2.57-.12,1.77,2.75,2.38,5.87,2.63,9.03,.17,2.14-2.07,2.2-3.23,3.19-.67,.57-2.03,.63-2.08,1.53-.06,1.17,1.34,1.38,2.17,1.7,2.66,1.01,3.25,2.62,2.29,5.28-.84,2.32-1.67,4.58-3.23,6.52-1.16,1.44-2.14,1.7-2.79-.36-.85-2.69-1.84-2.36-3.07-.23-1.04,1.79-1.98,1.37-2.96-.16-1.88-2.92-2.41-6.21-2.79-9.72Z"/><path d="M131.81,183.72c-3.24-.19-6.48-.3-9.71-.58-2.96-.26-3.87-1.78-2.52-4.46,1.82-3.61,4.59-6.51,7.63-9.11,3.24-2.78,6.87-5.03,10.65-7,3.53-1.84,5.52-.95,6.19,2.85,.85,4.82,1.47,9.67,2.2,14.51,.04,.27,.18,.59,.08,.8-1.23,2.5-3.5,1.02-5.28,1.27-1.03,.14-2.61,.73-2.91-1.34-.79-5.53-1.09-5.73-6.72-5.29-1.44,.11-2.9,.13-4.33,.31-2.31,.3-3.23,2.08-3.36,4.02-.15,2.12,1.53,2.5,3.33,2.65,1.6,.14,3.18,.61,4.76,.93,0,.14,0,.29,0,.43Z"/><path d="M205.18,197.87c-4.11-1.29-7.09,.83-9.95,3.03-1.91,1.47-3.91,2.25-6.27,1.72-4.72-1.05-9.26,1.02-13.92,.77-2.44-.13-4.86-.52-7.3-.71-1.65-.13-2.3-1.24-2.83-2.55-.62-1.52,.7-1.9,1.54-2.44,2.33-1.48,4.25-3.71,7.37-3.76,1.27-.02,.59-1.03,.3-1.62-1.43-2.87-3.75-4.84-6.51-6.37-.75-.42-1.75-.53-2.26-1.86,5.5,1.56,10.34,3.58,13,8.78,.68,1.33,1.51,1.69,2.89,1.93,7.94,1.38,16.07,.99,23.94,3.07Zm-30.98,3.97c-1.24-1.49-3.78-1.02-3.19-3.34,.59-2.33,2.49-2.54,4.53-2.34-2.9-.8-7.04,.64-8.71,3.04-.88,1.27,.03,1.83,1.11,1.99,1.94,.28,3.9,.41,6.26,.65Z"/><path d="M176.66,229.49c-2.52-3.7-3.94-7.85-5.05-12.09-1.54-5.87-2.41-6.35,4.94-5.66,5.31,.5,10.64,.77,15.96,1.16,.89,.07,1.83,.02,2.61,.58,.94,.67,1.69,1.54,1.35,2.73-.32,1.13-1.44,.91-2.31,.89-4.88-.14-9.76-.2-14.63-.51-2.69-.18-3.24,1.08-3.17,3.38,.1,3.15,.98,6.26,.3,9.53Z"/><path d="M290.11,201.86c.05,.89,.35,1.83-.55,2.5-1.01,.75-1.66,0-2.38-.54-1.11-.84-2.45-.85-3.66-.63-3.77,.69-5.22-2.3-7.17-4.42-.9-.98,.31-1.18,.91-1.33,3.25-.81,6.52-1.52,9.76-2.34,1.14-.29,1.68,.13,2.04,1.15,.64,1.81,.97,3.67,1.05,5.59Z"/><path d="M140.97,197.98h-28.4c4.24-1.83,23.08-2.08,28.4,0Z"/></g><g><path d="M63.36,290.66c-1.5,0-2.9-.25-4.19-.75-1.29-.5-2.41-1.2-3.36-2.12-.95-.91-1.69-1.99-2.21-3.23-.53-1.24-.79-2.6-.79-4.06s.26-2.82,.79-4.06c.53-1.24,1.27-2.32,2.23-3.23s2.08-1.62,3.36-2.12c1.28-.5,2.68-.75,4.2-.75,1.62,0,3.09,.28,4.43,.83,1.33,.55,2.46,1.38,3.38,2.47l-2.37,2.23c-.71-.77-1.51-1.35-2.4-1.73-.88-.38-1.84-.58-2.88-.58s-1.98,.17-2.83,.51c-.86,.34-1.6,.82-2.23,1.44-.63,.62-1.12,1.35-1.47,2.2-.35,.85-.52,1.78-.52,2.79s.17,1.95,.52,2.79c.35,.85,.84,1.58,1.47,2.2,.63,.62,1.37,1.1,2.23,1.44,.86,.34,1.8,.51,2.83,.51s1.99-.19,2.88-.58c.88-.38,1.68-.97,2.4-1.76l2.37,2.26c-.92,1.07-2.05,1.89-3.38,2.45-1.34,.56-2.82,.85-4.46,.85Z"/><path d="M71.52,290.38l8.88-19.74h3.61l8.91,19.74h-3.84l-7.64-17.8h1.47l-7.62,17.8h-3.78Zm4.09-4.57l.99-2.88h10.66l.99,2.88h-12.64Z"/><path d="M95.43,290.38v-19.74h8.12c1.75,0,3.25,.28,4.5,.85,1.25,.56,2.21,1.37,2.89,2.43,.68,1.05,1.02,2.3,1.02,3.75s-.34,2.69-1.02,3.74c-.68,1.04-1.64,1.84-2.89,2.4-1.25,.55-2.75,.83-4.5,.83h-6.09l1.64-1.66v7.42h-3.67Zm3.67-7.02l-1.64-1.75h5.92c1.62,0,2.83-.35,3.65-1.04,.82-.7,1.23-1.66,1.23-2.9s-.41-2.23-1.23-2.91-2.04-1.02-3.65-1.02h-5.92l1.64-1.8v11.42Zm9.25,7.02l-4.99-7.16h3.92l5.02,7.16h-3.95Z"/><path d="M123.83,290.38v-19.74h8.12c1.75,0,3.25,.28,4.5,.85,1.25,.56,2.21,1.37,2.89,2.43,.68,1.05,1.02,2.3,1.02,3.75s-.34,2.69-1.02,3.74c-.68,1.04-1.64,1.84-2.89,2.4-1.25,.55-2.75,.83-4.5,.83h-6.09l1.64-1.66v7.42h-3.67Zm3.67-7.02l-1.64-1.75h5.92c1.62,0,2.83-.35,3.65-1.04,.82-.7,1.23-1.66,1.23-2.9s-.41-2.23-1.23-2.91-2.04-1.02-3.65-1.02h-5.92l1.64-1.8v11.42Zm9.25,7.02l-4.99-7.16h3.92l5.02,7.16h-3.95Z"/><path d="M148.12,287.31h11.14v3.07h-14.81v-19.74h14.41v3.07h-10.75v13.59Zm-.28-8.46h9.81v3.02h-9.81v-3.02Z"/><path d="M163.35,290.38v-19.74h3.02l12.38,15.2h-1.5v-15.2h3.64v19.74h-3.02l-12.38-15.2h1.49v15.2h-3.64Z"/><path d="M190.2,290.38v-16.64h-6.54v-3.1h16.75v3.1h-6.54v16.64h-3.67Z"/><path d="M199.39,290.38l8.88-19.74h3.61l8.91,19.74h-3.84l-7.64-17.8h1.47l-7.61,17.8h-3.78Zm4.09-4.57l.99-2.88h10.66l.99,2.88h-12.64Z"/><path d="M223.31,290.38v-19.74h3.67v16.64h10.32v3.1h-13.99Z"/><path d="M247.9,290.38v-19.74h1.72l9.03,15.4h-.9l8.94-15.4h1.72v19.74h-2v-16.61h.48l-8.24,14.1h-.99l-8.29-14.1h.54v16.61h-2Z"/><path d="M274.84,290.38v-19.74h2.09v19.74h-2.09Z"/><path d="M280.19,290.38l9.03-19.74h2.06l9.03,19.74h-2.2l-8.29-18.53h.85l-8.29,18.53h-2.17Zm3.55-5.27l.62-1.69h11.48l.62,1.69h-12.72Z"/><path d="M303.58,290.38v-19.74h1.72l9.03,15.4h-.9l8.94-15.4h1.72v19.74h-2v-16.61h.48l-8.24,14.1h-.99l-8.29-14.1h.54v16.61h-2Z"/><path d="M330.51,290.38v-19.74h2.09v19.74h-2.09Z"/></g></g></svg>